<svg width="900" viewBox="0 0 900 920" xmlns="http://www.w3.org/2000/svg" font-family="Arial,sans-serif">
<title>ASL Detection System Architecture</title>
<defs>
  <marker id="arrow" viewBox="0 0 10 10" refX="8" refY="5" markerWidth="6" markerHeight="6" orient="auto-start-reverse">
    <path d="M2 1L8 5L2 9" fill="none" stroke="#555" stroke-width="1.5" stroke-linecap="round" stroke-linejoin="round"/>
  </marker>
</defs>
<rect width="900" height="920" fill="#fff"/>

<!-- Section labels -->
<rect x="30" y="20" width="840" height="230" rx="14" fill="#f9fafb" stroke="#ccc" stroke-width="1" stroke-dasharray="5 3"/>
<text x="48" y="40" font-size="12" fill="#888">Data pipeline</text>

<!-- Teal nodes row 1 -->
<rect x="46" y="48" width="160" height="52" rx="8" fill="#E1F5EE" stroke="#0F6E56" stroke-width="0.8"/>
<text x="126" y="71" text-anchor="middle" font-size="13" font-weight="600" fill="#085041">Webcam capture</text>
<text x="126" y="87" text-anchor="middle" font-size="11" fill="#0F6E56">collect_data.py</text>

<rect x="240" y="48" width="160" height="52" rx="8" fill="#E1F5EE" stroke="#0F6E56" stroke-width="0.8"/>
<text x="320" y="71" text-anchor="middle" font-size="13" font-weight="600" fill="#085041">Raw images</text>
<text x="320" y="87" text-anchor="middle" font-size="11" fill="#0F6E56">100 imgs × 12 classes</text>

<rect x="434" y="48" width="160" height="52" rx="8" fill="#E1F5EE" stroke="#0F6E56" stroke-width="0.8"/>
<text x="514" y="71" text-anchor="middle" font-size="13" font-weight="600" fill="#085041">Augmentation</text>
<text x="514" y="87" text-anchor="middle" font-size="11" fill="#0F6E56">augment.py → 600/class</text>

<line x1="206" y1="74" x2="238" y2="74" stroke="#555" stroke-width="1" marker-end="url(#arrow)"/>
<line x1="400" y1="74" x2="432" y2="74" stroke="#555" stroke-width="1" marker-end="url(#arrow)"/>

<!-- Purple nodes row 2 -->
<rect x="46" y="148" width="160" height="52" rx="8" fill="#EEEDFE" stroke="#534AB7" stroke-width="0.8"/>
<text x="126" y="171" text-anchor="middle" font-size="13" font-weight="600" fill="#3C3489">Annotation</text>
<text x="126" y="187" text-anchor="middle" font-size="11" fill="#534AB7">YOLO bbox format</text>

<rect x="240" y="148" width="160" height="52" rx="8" fill="#EEEDFE" stroke="#534AB7" stroke-width="0.8"/>
<text x="320" y="171" text-anchor="middle" font-size="13" font-weight="600" fill="#3C3489">Dataset split</text>
<text x="320" y="187" text-anchor="middle" font-size="11" fill="#534AB7">75% / 15% / 10%</text>

<rect x="434" y="148" width="160" height="52" rx="8" fill="#EEEDFE" stroke="#534AB7" stroke-width="0.8"/>
<text x="514" y="171" text-anchor="middle" font-size="13" font-weight="600" fill="#3C3489">Annotation check</text>
<text x="514" y="187" text-anchor="middle" font-size="11" fill="#534AB7">utils.py validation</text>

<path d="M514 100 L514 124 L126 124 L126 146" fill="none" stroke="#555" stroke-width="1" marker-end="url(#arrow)"/>
<line x1="206" y1="174" x2="238" y2="174" stroke="#555" stroke-width="1" marker-end="url(#arrow)"/>
<line x1="400" y1="174" x2="432" y2="174" stroke="#555" stroke-width="1" marker-end="url(#arrow)"/>

<!-- Training Section -->
<rect x="30" y="270" width="840" height="170" rx="14" fill="#f0f4ff" stroke="#ccc" stroke-width="1" stroke-dasharray="5 3"/>
<text x="48" y="288" font-size="12" fill="#888">Training</text>

<rect x="46" y="298" width="160" height="52" rx="8" fill="#E6F1FB" stroke="#185FA5" stroke-width="0.8"/>
<text x="126" y="321" text-anchor="middle" font-size="13" font-weight="600" fill="#0C447C">YOLOv8n</text>
<text x="126" y="337" text-anchor="middle" font-size="11" fill="#185FA5">Primary model</text>

<rect x="240" y="298" width="160" height="52" rx="8" fill="#E6F1FB" stroke="#185FA5" stroke-width="0.8"/>
<text x="320" y="321" text-anchor="middle" font-size="13" font-weight="600" fill="#0C447C">YOLOv8s</text>
<text x="320" y="337" text-anchor="middle" font-size="11" fill="#185FA5">Comparison model</text>

<rect x="434" y="298" width="160" height="52" rx="8" fill="#E6F1FB" stroke="#185FA5" stroke-width="0.8"/>
<text x="514" y="315" text-anchor="middle" font-size="13" font-weight="600" fill="#0C447C">Hyperparameters</text>
<text x="514" y="333" text-anchor="middle" font-size="11" fill="#185FA5">AdamW · 100ep · FP16</text>

<rect x="220" y="382" width="260" height="42" rx="8" fill="#e8eaed" stroke="#888" stroke-width="0.8"/>
<text x="350" y="407" text-anchor="middle" font-size="13" font-weight="600" fill="#333">Model compare → best.pt</text>

<line x1="126" y1="350" x2="126" y2="370" stroke="#555" stroke-width="1"/>
<line x1="126" y1="370" x2="348" y2="370" stroke="#555" stroke-width="1"/>
<line x1="320" y1="350" x2="320" y2="380" stroke="#555" stroke-width="1" marker-end="url(#arrow)"/>
<line x1="514" y1="350" x2="514" y2="370" stroke="#555" stroke-width="1"/>
<line x1="514" y1="370" x2="352" y2="370" stroke="#555" stroke-width="1"/>
<line x1="350" y1="370" x2="350" y2="380" stroke="#555" stroke-width="1" marker-end="url(#arrow)"/>

<!-- Evaluation Section -->
<rect x="30" y="460" width="840" height="155" rx="14" fill="#fffbf0" stroke="#ccc" stroke-width="1" stroke-dasharray="5 3"/>
<text x="48" y="478" font-size="12" fill="#888">Evaluation</text>

<rect x="46" y="488" width="160" height="52" rx="8" fill="#FAEEDA" stroke="#BA7517" stroke-width="0.8"/>
<text x="126" y="510" text-anchor="middle" font-size="13" font-weight="600" fill="#633806">mAP metrics</text>
<text x="126" y="526" text-anchor="middle" font-size="11" fill="#BA7517">mAP50 / mAP50:95</text>

<rect x="240" y="488" width="160" height="52" rx="8" fill="#FAEEDA" stroke="#BA7517" stroke-width="0.8"/>
<text x="320" y="510" text-anchor="middle" font-size="13" font-weight="600" fill="#633806">Confusion matrix</text>
<text x="320" y="526" text-anchor="middle" font-size="11" fill="#BA7517">Per-class P/R/F1</text>

<rect x="434" y="488" width="160" height="52" rx="8" fill="#FAEEDA" stroke="#BA7517" stroke-width="0.8"/>
<text x="514" y="510" text-anchor="middle" font-size="13" font-weight="600" fill="#633806">Benchmark</text>
<text x="514" y="526" text-anchor="middle" font-size="11" fill="#BA7517">FPS · latency · RAM</text>

<rect x="160" y="562" width="280" height="38" rx="8" fill="#FAEEDA" stroke="#BA7517" stroke-width="0.8"/>
<text x="300" y="585" text-anchor="middle" font-size="12" font-weight="600" fill="#633806">Error analysis report (MD + JSON)</text>

<line x1="126" y1="540" x2="126" y2="553" stroke="#555" stroke-width="1"/>
<line x1="126" y1="553" x2="298" y2="553" stroke="#555" stroke-width="1"/>
<line x1="320" y1="540" x2="320" y2="560" stroke="#555" stroke-width="1" marker-end="url(#arrow)"/>
<line x1="514" y1="540" x2="514" y2="553" stroke="#555" stroke-width="1"/>
<line x1="514" y1="553" x2="302" y2="553" stroke="#555" stroke-width="1"/>
<line x1="300" y1="553" x2="300" y2="560" stroke="#555" stroke-width="1" marker-end="url(#arrow)"/>

<!-- Real-Time Inference Section -->
<rect x="30" y="635" width="840" height="185" rx="14" fill="#fff4f2" stroke="#ccc" stroke-width="1" stroke-dasharray="5 3"/>
<text x="48" y="653" font-size="12" fill="#888">Real-time inference (webcam.py)</text>

<rect x="46" y="663" width="120" height="44" rx="8" fill="#FAECE7" stroke="#993C1D" stroke-width="0.8"/>
<text x="106" y="685" text-anchor="middle" font-size="13" font-weight="600" fill="#4A1B0C">Webcam</text>

<rect x="194" y="663" width="120" height="44" rx="8" fill="#FAECE7" stroke="#993C1D" stroke-width="0.8"/>
<text x="254" y="685" text-anchor="middle" font-size="13" font-weight="600" fill="#4A1B0C">Preprocess</text>

<rect x="342" y="663" width="120" height="44" rx="8" fill="#FAECE7" stroke="#993C1D" stroke-width="0.8"/>
<text x="402" y="678" text-anchor="middle" font-size="13" font-weight="600" fill="#4A1B0C">YOLOv8</text>
<text x="402" y="695" text-anchor="middle" font-size="11" fill="#993C1D">detect + classify</text>

<rect x="490" y="663" width="120" height="44" rx="8" fill="#FAECE7" stroke="#993C1D" stroke-width="0.8"/>
<text x="550" y="678" text-anchor="middle" font-size="13" font-weight="600" fill="#4A1B0C">Smoothing</text>
<text x="550" y="695" text-anchor="middle" font-size="11" fill="#993C1D">5-frame vote</text>

<rect x="638" y="663" width="120" height="44" rx="8" fill="#FAECE7" stroke="#993C1D" stroke-width="0.8"/>
<text x="698" y="678" text-anchor="middle" font-size="13" font-weight="600" fill="#4A1B0C">Display</text>
<text x="698" y="695" text-anchor="middle" font-size="11" fill="#993C1D">bbox + conf + FPS</text>

<line x1="166" y1="685" x2="192" y2="685" stroke="#555" stroke-width="1" marker-end="url(#arrow)"/>
<line x1="314" y1="685" x2="340" y2="685" stroke="#555" stroke-width="1" marker-end="url(#arrow)"/>
<line x1="462" y1="685" x2="488" y2="685" stroke="#555" stroke-width="1" marker-end="url(#arrow)"/>
<line x1="610" y1="685" x2="636" y2="685" stroke="#555" stroke-width="1" marker-end="url(#arrow)"/>

<rect x="46" y="730" width="712" height="36" rx="8" fill="#e8eaed" stroke="#888" stroke-width="0.8"/>
<text x="402" y="752" text-anchor="middle" font-size="12" font-weight="600" fill="#333">Q quit · S screenshot · R record · SPACE pause · +/- confidence threshold</text>

<rect x="46" y="790" width="712" height="18" rx="6" fill="#f0f4ff" stroke="#185FA5" stroke-width="0.8"/>
<text x="402" y="803" text-anchor="middle" font-size="11" fill="#185FA5">Dockerfile · docker-compose.yml · .env · requirements.txt</text>

<!-- Section connector lines -->
<line x1="400" y1="260" x2="400" y2="270" stroke="#aaa" stroke-width="1" stroke-dasharray="4 3"/>
<line x1="400" y1="440" x2="400" y2="460" stroke="#aaa" stroke-width="1" stroke-dasharray="4 3"/>
<line x1="400" y1="618" x2="400" y2="635" stroke="#aaa" stroke-width="1" stroke-dasharray="4 3"/>
</svg>
